<svg width="107" height="20" viewBox="0 0 107 20" fill="none" xmlns="http://www.w3.org/2000/svg">
<path d="M13.0566 16.2408L11.9682 19.1551L11.7975 19.5986H0.530029V18.9017C1.34095 18.9017 1.63971 18.3738 1.63971 16.9588V7.68779C1.63971 6.27285 1.31961 5.74488 0.530029 5.74488V5.04797H5.82233V5.74488C5.01142 5.74488 4.71266 6.27285 4.71266 7.68779V18.4371H9.55682C10.9866 18.4371 11.7762 17.7613 12.3737 16.1774L13.0566 16.2408Z" fill="black"/>
<path d="M29.9585 18.8806V19.5775H23.2151V18.8806C24.8156 18.8806 24.965 18.4371 24.4315 17.1489L22.7883 13.0941H17.5387L15.8955 17.1489C15.362 18.4582 15.5114 18.8806 17.1119 18.8806V19.5775H13.6548L18.5843 7.34989C19.0538 6.16726 18.8831 5.74488 17.4106 5.74488V5.04797H22.8523L27.7391 17.1278C28.294 18.4371 29.0836 18.8806 29.9585 18.8806ZM22.3401 11.9537L20.1635 6.61074L18.0081 11.9537H22.3401ZM18.5203 7.49772L18.5843 7.37101L18.5203 7.49772Z" fill="black"/>
<path d="M44.6391 15.6495C44.6391 19.6198 41.054 19.5986 38.2798 19.5986H31.387V18.9017C32.1979 18.9017 32.4966 18.3738 32.4966 16.9588V7.68779C32.4966 6.27285 32.1765 5.74489 31.387 5.74489V5.04797H37.8316C40.9259 5.04797 44.0629 5.04797 44.0629 8.57477C44.0629 10.3065 43.1879 11.2568 41.9502 11.7848C43.444 12.3127 44.6391 13.432 44.6391 15.6495ZM35.5483 11.2568H37.5115C39.8803 11.2568 40.9899 10.94 40.9899 8.7226C40.9899 6.50515 39.8803 6.18837 37.5115 6.18837H35.5483V11.2568ZM41.5661 15.4172C41.5661 13.1997 40.4564 12.3972 38.0877 12.3972H35.5483V18.4371H38.0877C40.4564 18.4371 41.5661 17.6557 41.5661 15.4172Z" fill="black"/>
<path d="M61.328 12.3127C61.328 16.5998 58.6605 19.7887 53.795 19.7887C48.9295 19.7887 46.262 16.5998 46.262 12.3127C46.262 8.02569 48.9295 4.83679 53.795 4.83679C58.6605 4.83679 61.328 8.02569 61.328 12.3127ZM58.255 12.8618C58.7032 9.14497 57.7855 6.42068 54.7979 6.04055C51.3622 5.61818 49.8471 8.06793 49.3563 11.7637C48.8868 15.4805 49.8257 18.2048 52.8133 18.5849C56.2277 19.0073 57.7855 16.5787 58.255 12.8618Z" fill="black"/>
<path d="M77.1403 12.3127C77.1403 18.7117 72.2535 19.5775 69.7567 19.5775H62.7786V18.8806C63.5895 18.8806 63.8882 18.3526 63.8882 16.9377V7.68779C63.8882 6.27285 63.5681 5.74488 62.7786 5.74488V5.04797H69.7567C72.2535 5.04797 77.1403 5.93495 77.1403 12.3127ZM74.0674 12.3127C74.0674 7.85674 72.3815 6.18837 69.1805 6.18837H66.9612V18.4371H69.1805C72.3815 18.4371 74.0674 16.7688 74.0674 12.3127Z" fill="black"/>
<path d="M90.5638 16.2404L90.265 19.1547L90.2224 19.5982H78.6348V18.9013C79.4457 18.9013 79.7444 18.3733 79.7444 16.9584V7.68738C79.7444 6.27244 79.4243 5.74448 78.6348 5.74448V5.04757H90.2437L90.201 5.49105L89.9023 8.40541L89.1767 8.46876C89.3474 6.88488 88.8779 6.20908 87.4695 6.20908H82.8387V11.6577H85.5062C86.936 11.6577 87.4695 11.3409 87.4695 10.5595H88.1737V13.8962H87.4695C87.4695 13.0937 86.936 12.7981 85.5062 12.7981H82.8387V18.4578H87.6829C89.1127 18.4578 89.7102 17.782 89.8596 16.1981L90.5638 16.2404ZM83.2655 3.50591L82.4546 2.93571C83.4789 2.53446 84.1405 2.02762 84.1405 0.654915L86.9147 0.211426C86.9147 2.28104 84.7167 3.27361 83.2655 3.50591Z" fill="black"/>
<path d="M106.055 8.40582L105.351 8.46917C105.201 6.88528 104.604 6.20949 103.174 6.20949H100.549V16.9588C100.549 18.3738 100.869 18.9017 101.659 18.9017V19.5986H96.3451V18.9017C97.1561 18.9017 97.4548 18.3738 97.4548 16.9588V6.20949H94.8514C93.4216 6.20949 92.8241 6.88528 92.6747 8.46917L91.9705 8.40582L92.2692 5.49146L92.3119 5.04797H105.756L105.799 5.49146L106.055 8.40582Z" fill="black"/>
</svg>
